<?xml version="1.0" standalone="no"?>
<!DOCTYPE svg PUBLIC "-//W3C//DTD SVG 20010904//EN"
 "http://www.w3.org/TR/2001/REC-SVG-20010904/DTD/svg10.dtd">
<svg version="1.0" xmlns="http://www.w3.org/2000/svg"
 width="640.000000pt" height="640.000000pt" viewBox="0 0 640.000000 640.000000"
 preserveAspectRatio="xMidYMid meet">
<metadata>
Created by potrace 1.14, written by Peter Selinger 2001-2017
</metadata>
<g transform="translate(0.000000,640.000000) scale(0.100000,-0.100000)"
fill="#000000" stroke="none">
<path d="M4281 6391 c-6 -4 -53 -9 -104 -10 -53 -1 -94 -6 -98 -13 -4 -6 -11
-8 -16 -5 -15 9 -234 -29 -283 -50 -8 -3 -24 -8 -34 -10 -38 -7 -107 -33 -133
-51 -19 -12 -25 -13 -19 -3 6 9 -4 7 -30 -7 -21 -11 -57 -27 -79 -37 -22 -9
-51 -23 -65 -31 -14 -9 -37 -21 -52 -27 -16 -6 -28 -15 -28 -19 0 -4 -7 -8
-15 -8 -20 0 -76 -35 -68 -43 3 -4 -1 -7 -10 -7 -9 0 -26 -9 -37 -20 -11 -11
-20 -18 -20 -15 0 3 -10 1 -21 -6 -16 -8 -18 -13 -9 -19 8 -5 2 -10 -16 -14
-35 -9 -104 -57 -104 -73 0 -7 -6 -13 -13 -13 -8 0 -33 -20 -56 -45 -23 -25
-46 -45 -52 -45 -5 0 -9 -5 -9 -11 0 -14 -38 -47 -70 -60 -24 -11 -24 -12 -5
-19 17 -8 16 -9 -8 -9 -19 -1 -27 -5 -24 -13 2 -7 -11 -32 -29 -55 -19 -23
-34 -47 -34 -55 -1 -22 -37 -58 -53 -52 -8 3 -17 -2 -21 -11 -4 -11 -2 -14 7
-9 6 4 2 -4 -10 -17 -12 -13 -22 -27 -23 -31 -2 -24 -14 -38 -27 -34 -8 3 -11
1 -8 -4 6 -10 -24 -72 -37 -78 -5 -2 -8 -9 -8 -16 0 -7 -11 -23 -25 -36 -14
-13 -23 -26 -20 -28 6 -7 -41 -90 -67 -118 -11 -12 -22 -41 -24 -64 -3 -23
-12 -53 -20 -66 -9 -13 -13 -28 -9 -34 4 -6 -3 -18 -14 -28 -15 -12 -24 -37
-31 -92 -6 -41 -15 -76 -20 -78 -6 -2 -10 -21 -10 -42 0 -21 -5 -40 -11 -42
-6 -2 -14 -35 -19 -74 -4 -38 -16 -90 -27 -114 -21 -49 -20 -80 3 -80 8 0 14
-4 14 -10 0 -5 -5 -10 -12 -10 -16 0 -62 -52 -94 -107 -33 -55 -87 -207 -109
-306 -17 -76 -18 -78 -36 -61 -11 9 -19 25 -19 36 0 21 -23 24 -39 4 -6 -7
-15 -33 -20 -57 -43 -213 -43 -211 -37 -389 5 -141 11 -188 28 -242 19 -58 21
-72 10 -101 -24 -67 -12 -135 32 -188 21 -24 24 -41 31 -161 9 -170 57 -579
75 -648 6 -19 10 -48 10 -64 0 -16 11 -80 25 -142 25 -108 25 -115 9 -140 -21
-30 -64 -50 -74 -34 -12 19 -61 40 -74 32 -23 -13 -79 -83 -72 -89 8 -8 -13
-33 -28 -33 -7 0 -12 14 -12 33 0 65 -26 84 -77 55 -12 -7 -40 -13 -62 -14
-22 -1 -50 -5 -62 -9 -20 -6 -21 -5 -14 21 6 23 13 29 36 29 16 0 30 5 32 11
4 12 -20 23 -72 33 -18 4 -31 13 -33 25 -2 10 0 16 5 14 4 -3 22 1 38 8 17 7
24 13 18 14 -19 0 -16 30 2 30 9 0 18 -7 21 -15 9 -23 27 -18 21 5 -4 17 -2
20 16 16 12 -3 16 -3 10 0 -7 3 -13 12 -13 20 0 17 -4 17 -31 2 -18 -11 -23
-10 -27 1 -3 9 -15 1 -38 -25 -19 -20 -37 -34 -41 -30 -4 4 -3 10 2 14 6 4 16
18 23 30 13 24 13 24 -30 17 -24 -4 -44 -11 -46 -16 -7 -17 -42 27 -42 53 0
15 -5 30 -10 33 -6 4 -10 -7 -10 -26 0 -31 0 -32 -20 -14 -23 21 -26 50 -7 62
7 4 18 20 24 35 7 16 17 28 23 28 5 0 10 22 10 50 0 40 -4 51 -21 61 -13 6
-17 14 -11 18 28 17 15 45 -16 34 -7 -3 -19 0 -27 7 -18 15 -21 55 -3 44 7 -5
8 -3 4 5 -5 7 -11 10 -14 7 -3 -3 -11 -1 -19 5 -10 9 -13 4 -12 -27 0 -31 2
-35 9 -19 7 17 9 15 9 -13 1 -18 -6 -43 -14 -56 -14 -21 -23 -117 -25 -259 0
-30 -4 -46 -10 -42 -6 3 -8 16 -6 28 3 12 8 137 11 277 5 204 3 284 -11 400
-19 168 -47 345 -38 245 27 -313 30 -490 14 -830 -11 -223 -41 -602 -65 -825
-8 -74 -28 -259 -45 -410 -16 -151 -34 -320 -40 -375 -5 -55 -19 -187 -30
-294 -11 -107 -20 -198 -20 -203 0 -4 9 -8 19 -8 21 0 31 19 31 56 0 21 5 24
35 24 33 0 35 2 36 35 3 81 2 85 -17 85 -13 0 -15 5 -8 28 4 15 8 91 9 169 0
77 3 145 8 149 4 4 7 17 7 30 0 12 3 29 6 38 9 22 45 20 51 -3 3 -13 11 -17
24 -14 12 4 19 0 19 -10 0 -20 58 -28 73 -11 7 7 18 20 25 29 17 20 24 19 50
-6 l22 -20 34 35 c34 36 56 46 56 24 0 -6 7 -4 18 5 10 10 23 17 29 17 6 0 13
6 16 13 2 6 8 0 12 -15 4 -16 11 -28 15 -28 10 0 20 79 20 160 0 60 3 72 30
105 33 41 40 71 14 61 -8 -3 -13 -2 -10 3 3 5 -1 14 -9 21 -12 10 -13 16 -4
26 14 17 39 1 39 -25 0 -10 8 -4 21 16 19 30 19 35 6 60 -8 15 -20 47 -26 71
-13 47 -32 54 -49 17 -17 -38 -32 -30 -25 13 8 51 20 82 33 82 5 0 10 9 10 19
0 11 3 21 8 23 4 2 19 19 34 39 15 20 39 40 54 43 35 9 74 35 74 51 0 8 21 11
72 9 56 -2 76 -7 86 -21 13 -17 14 -17 28 1 11 16 14 17 14 4 0 -19 21 -28 49
-21 33 8 26 -23 -6 -33 -40 -11 -84 -9 -122 4 -51 18 -101 15 -107 -5 -3 -10
-8 -25 -11 -33 -11 -31 -11 -145 0 -159 9 -10 6 -17 -11 -31 -12 -10 -18 -20
-13 -22 18 -7 22 -46 5 -62 -20 -21 -15 -97 9 -124 8 -9 22 -37 30 -62 13 -35
16 -39 17 -20 1 23 2 23 10 5 14 -33 12 -65 -5 -65 -8 0 -15 -7 -15 -16 0 -8
4 -13 9 -9 5 3 12 1 16 -5 3 -5 0 -10 -8 -10 -18 0 -27 -82 -27 -254 1 -122
14 -206 44 -277 4 -9 0 -21 -9 -29 -13 -11 -15 -9 -15 12 0 13 -6 32 -14 43
-20 30 -36 139 -36 248 0 85 -2 96 -19 102 -34 10 -43 32 -61 147 -25 153 -34
186 -44 170 -4 -8 -9 -37 -11 -65 -1 -29 -7 -63 -13 -77 -5 -14 -8 -28 -5 -33
2 -4 -1 -6 -8 -5 -18 4 -20 -57 -4 -120 16 -61 11 -89 -11 -71 -8 7 -18 9 -21
5 -4 -4 -1 -11 7 -16 10 -6 11 -12 3 -22 -21 -27 -55 -127 -47 -140 4 -7 10
-28 14 -47 4 -31 10 -36 40 -42 20 -4 36 -4 38 2 6 17 22 9 22 -11 0 -15 -7
-20 -26 -20 -22 0 -24 -3 -19 -22 4 -16 3 -19 -3 -9 -7 10 -11 10 -17 1 -4 -7
-3 -15 2 -19 10 -6 25 -41 18 -41 -2 0 -11 7 -19 16 -15 14 -16 13 -16 -10 0
-35 0 -35 189 14 19 5 38 7 42 4 13 -8 -2 -34 -20 -34 -9 0 -31 -9 -49 -20
-18 -11 -39 -20 -46 -20 -8 0 -16 -7 -20 -15 -3 -8 -12 -15 -20 -15 -8 0 -47
-16 -87 -35 l-73 -35 127 0 c115 0 129 2 148 21 11 11 24 17 27 13 4 -3 1 -9
-5 -11 -7 -3 -13 -9 -13 -14 0 -6 75 -9 189 -9 l190 2 12 36 c9 27 9 37 0 40
-6 2 -11 8 -11 13 0 6 5 7 11 4 14 -9 61 3 54 14 -3 5 4 7 15 4 23 -6 27 -33
5 -33 -11 0 -15 -11 -15 -40 l0 -40 415 0 415 0 0 38 c1 20 7 51 15 67 13 28
14 26 8 -37 l-6 -68 785 0 786 0 20 93 c12 50 26 155 32 232 13 187 13 188 -6
181 -9 -3 -27 3 -41 14 -14 11 -32 20 -39 20 -8 0 -14 5 -14 10 0 6 -11 10
-24 10 -14 0 -28 5 -31 11 -13 20 6 23 34 6 16 -9 40 -17 53 -17 13 0 29 -9
36 -20 7 -11 21 -20 31 -20 30 0 47 -28 32 -52 -8 -12 -9 -24 -3 -30 5 -5 6
-30 1 -60 -5 -28 -6 -55 -3 -60 3 -5 -1 -39 -10 -76 -8 -37 -20 -99 -26 -139
-5 -39 -13 -78 -16 -87 -6 -14 23 -16 291 -16 288 0 297 1 302 20 7 26 20 26
28 0 6 -18 15 -20 100 -20 l93 0 6 36 c6 29 10 34 27 29 11 -4 19 -2 19 4 0
12 39 15 64 5 9 -3 16 -15 16 -25 0 -36 49 -49 190 -49 80 0 130 4 130 10 0 6
-4 10 -8 10 -10 0 -62 77 -62 91 0 6 -4 8 -9 5 -5 -3 -16 5 -25 19 -9 14 -23
25 -31 25 -8 0 -15 7 -15 16 0 8 -4 13 -9 9 -5 -3 -12 -1 -16 5 -13 21 40 9
106 -25 38 -19 69 -32 69 -27 0 4 4 0 10 -8 5 -8 13 -11 17 -6 4 4 -1 14 -11
22 -11 8 -14 14 -7 14 9 0 8 4 -3 15 -8 8 -18 24 -21 35 -3 11 -12 20 -20 20
-7 0 -19 13 -26 28 -9 22 -18 28 -34 24 -15 -3 -28 4 -39 20 -14 20 -18 21
-27 8 -9 -13 -10 -13 -6 1 3 9 -3 23 -14 32 -10 9 -19 12 -19 7 0 -23 -28 -8
-34 18 -3 15 -18 36 -32 46 -24 17 -28 18 -39 3 -10 -13 -13 -12 -22 14 -9 23
-17 29 -42 29 -17 0 -31 4 -31 10 0 5 -7 6 -17 3 -10 -4 -14 -2 -9 5 3 6 -2
13 -13 17 -11 3 -22 19 -26 37 -5 23 -9 27 -16 17 -5 -8 -9 -9 -10 -4 -1 6 -2
15 -3 20 -2 17 -30 49 -55 63 -20 11 -25 12 -32 1 -4 -8 -11 -10 -16 -6 -4 5
-1 12 6 16 8 5 10 14 6 21 -6 10 -1 11 17 7 19 -5 28 -2 32 9 5 13 15 15 46
11 38 -5 40 -4 40 23 0 16 7 30 15 34 9 3 15 18 15 40 0 19 6 37 13 40 10 5
10 7 0 12 -18 8 -16 31 2 38 19 7 19 20 1 39 -8 7 -16 25 -18 38 -2 18 -11 25
-33 29 -26 5 -28 6 -10 13 20 8 20 8 -1 25 -12 9 -27 33 -33 53 -8 24 -26 46
-51 64 -45 31 -49 53 -26 120 14 38 16 40 53 36 21 -1 65 -14 97 -27 33 -13
79 -24 103 -24 49 0 52 -8 23 -56 -20 -32 -22 -32 -74 -27 -82 8 -87 -24 -14
-86 38 -34 108 -53 108 -31 0 6 6 10 14 10 8 0 16 6 19 14 3 8 18 16 34 18 20
2 29 9 31 24 2 13 -2 22 -10 21 -46 -2 -78 5 -77 16 0 6 10 32 22 56 19 38 29
46 74 61 59 19 153 73 192 110 42 40 61 53 61 42 0 -6 -30 -34 -67 -64 -38
-29 -69 -56 -71 -60 -2 -4 -25 -14 -51 -23 l-47 -15 8 -83 c4 -45 12 -120 18
-167 5 -47 12 -123 15 -170 l6 -85 -25 30 c-14 17 -26 35 -26 41 0 7 -9 14
-20 17 -16 4 -20 0 -20 -23 0 -15 7 -47 15 -70 8 -23 15 -76 15 -116 l0 -74
61 -60 c59 -58 98 -75 114 -50 3 6 17 10 30 10 27 0 41 16 36 43 -4 29 32 17
41 -13 5 -15 6 -5 2 28 -3 31 -1 52 5 52 13 0 25 -63 17 -88 -4 -11 -2 -23 4
-27 5 -3 10 -24 10 -46 l0 -39 69 0 c38 0 77 -3 86 -6 14 -6 16 0 13 37 l-3
44 -42 3 c-24 2 -43 8 -43 14 0 6 11 8 27 5 15 -3 32 -3 38 -1 14 6 7 75 -8
89 -18 15 -19 55 -2 55 19 0 19 19 0 26 -8 4 -12 10 -9 15 10 17 -6 30 -25 19
-17 -8 -18 -5 -17 36 2 27 8 49 17 55 11 7 11 9 0 9 -7 0 -11 6 -7 15 3 8 1
15 -4 15 -6 0 -10 7 -10 15 0 8 3 15 8 15 4 0 12 10 17 23 6 13 21 23 38 25
15 2 27 7 27 13 0 5 -27 6 -62 2 -93 -9 -93 -9 -93 7 0 11 19 17 78 24 l77 9
0 42 0 41 -35 -4 c-28 -3 -35 -9 -36 -26 0 -20 -1 -20 -9 -1 -7 17 -9 17 -9 3
-1 -22 -17 -23 -29 -2 -7 13 -13 14 -29 5 -11 -5 -23 -7 -27 -4 -10 11 -7 163
4 163 6 0 10 -4 10 -10 0 -5 6 -10 13 -10 8 0 20 -12 27 -26 13 -24 15 -24 27
-8 10 14 16 15 25 6 18 -18 31 -14 25 8 -3 13 3 26 19 39 21 16 24 27 24 81
l0 63 -67 -7 c-38 -4 -90 -10 -118 -13 -27 -3 -53 -10 -56 -16 -5 -6 -18 -6
-39 2 -18 6 -46 11 -61 11 -18 0 -29 5 -29 14 0 10 15 13 59 12 50 0 64 4 85
23 20 19 33 23 64 19 l39 -6 -3 87 -4 86 20 -78 c11 -44 17 -83 14 -88 -8 -14
59 -10 79 5 14 11 17 29 17 96 l0 83 -90 -6 c-49 -4 -90 -5 -90 -2 0 3 26 58
59 123 32 64 73 157 90 206 l31 88 0 1466 -1 1467 -38 18 c-20 9 -47 17 -59
17 -15 0 -20 5 -16 15 7 17 -21 21 -31 5 -8 -13 -95 -13 -95 0 0 6 12 10 26
10 16 0 23 4 18 11 -3 6 -18 9 -32 6 -16 -3 -42 3 -64 14 -20 10 -43 19 -51
19 -21 0 -47 34 -47 61 0 17 -3 20 -9 10 -6 -9 -13 -1 -26 31 -11 32 -26 50
-48 61 -28 14 -29 16 -9 16 32 1 27 13 -16 39 l-37 23 38 -5 c43 -6 97 -27 97
-38 0 -5 8 -8 18 -8 9 0 36 -10 59 -22 30 -16 43 -30 45 -48 2 -19 9 -25 26
-24 12 0 22 -4 22 -9 0 -11 25 -33 55 -47 24 -12 62 -37 104 -68 24 -18 31
-20 31 -9 0 9 -6 18 -12 20 -9 4 -7 6 3 6 11 1 16 12 17 35 1 32 -4 37 -85 92
-85 57 -445 244 -470 244 -7 0 -13 7 -13 16 0 12 7 15 25 12 21 -4 23 -3 14
13 -5 10 -18 24 -29 32 -12 8 -20 18 -18 23 1 5 -4 25 -11 44 -8 19 -13 38
-12 43 0 4 -6 7 -14 7 -8 0 -15 5 -15 10 0 6 5 10 10 10 16 0 11 43 -10 85
-11 22 -20 47 -20 57 0 9 -18 34 -40 54 -22 21 -40 43 -40 50 0 7 -10 20 -22
29 -17 12 -19 18 -10 22 9 3 3 11 -16 23 -17 10 -33 28 -37 39 -3 12 -13 21
-21 21 -8 0 -14 5 -14 11 0 22 -56 79 -78 79 -18 0 -21 4 -17 23 4 18 -4 27
-42 52 -27 16 -56 30 -65 31 -26 2 -70 33 -63 44 4 6 0 10 -8 10 -8 0 -20 7
-27 15 -10 12 -15 13 -21 4 -5 -8 -10 -5 -18 10 -7 12 -21 21 -35 21 -13 0
-29 7 -36 15 -7 8 -23 15 -37 15 -13 0 -31 7 -39 15 -9 8 -25 15 -38 15 -12 0
-26 4 -32 9 -5 6 -31 14 -59 18 -41 7 -51 12 -53 31 -4 25 -14 28 -31 8 -9
-11 -19 -12 -39 -5 -53 18 -188 35 -433 53 -31 2 -61 1 -68 -3z m142 -1188
c-3 -32 -11 -61 -17 -65 -6 -4 -26 8 -46 28 l-35 35 35 30 c19 16 42 29 51 29
15 0 17 -8 12 -57z m95 10 c4 -48 -11 -83 -35 -83 -13 0 -13 -3 -3 -15 9 -11
15 -13 20 -5 11 18 64 7 77 -15 11 -18 12 -18 13 -2 0 28 64 23 78 -5 8 -17
11 -19 11 -6 1 9 5 18 10 20 5 2 11 16 13 33 4 39 -27 48 -36 11 -4 -15 -11
-26 -16 -26 -13 0 -5 113 8 118 7 2 12 -5 12 -16 0 -32 28 -35 43 -5 l14 26 6
-32 c4 -17 5 -36 3 -43 -17 -53 -15 -66 7 -73 12 -4 38 -6 58 -5 21 1 39 -2
42 -7 3 -4 1 -78 -5 -163 l-9 -155 -37 -33 -37 -34 -6 84 c-3 46 -6 68 -7 51
-3 -42 -13 -41 -52 4 -28 32 -31 41 -26 76 5 31 4 38 -7 34 -21 -8 -75 52 -80
88 -3 24 -4 22 -6 -12 -1 -35 -7 -46 -41 -73 -22 -17 -44 -29 -50 -25 -6 4
-10 -7 -10 -27 0 -26 -9 -40 -39 -65 -21 -18 -41 -29 -45 -26 -3 3 -4 25 -1
47 4 35 3 37 -4 11 -5 -16 -9 -52 -10 -79 -1 -42 -6 -53 -38 -82 -20 -19 -41
-34 -46 -34 -5 0 -7 17 -4 38 3 20 11 114 17 207 7 94 16 180 21 193 10 26 44
29 71 5 11 -9 18 -11 18 -5 0 7 7 12 15 12 8 0 15 9 15 20 0 15 7 20 25 20 31
0 32 13 3 28 l-23 11 23 7 c27 8 29 24 2 24 -11 0 -20 7 -20 16 0 11 8 14 33
12 30 -3 32 -6 35 -45z m103 10 c3 -56 -7 -103 -22 -103 -6 0 -10 10 -9 23 4
40 0 42 -25 12 -29 -35 -45 -27 -20 11 12 19 14 29 6 37 -15 15 16 47 46 47
18 0 23 -6 24 -27z m191 -15 c34 -16 35 -30 6 -51 l-23 -16 23 -7 c23 -7 29
-19 13 -29 -14 -8 -81 26 -81 42 0 7 10 18 22 24 21 11 21 12 1 23 -11 6 -18
17 -15 24 4 14 7 13 54 -10z m1408 -158 c0 -5 -4 -10 -9 -10 -6 0 -13 5 -16
10 -3 6 1 10 9 10 9 0 16 -4 16 -10z m-3 -422 c116 -57 175 -98 142 -98 -8 0
-19 4 -25 10 -14 14 -244 130 -258 130 -7 0 -21 7 -32 15 -42 34 51 3 173 -57z
m-1839 -354 c12 -8 22 -19 22 -25 0 -5 -24 -41 -52 -79 -51 -68 -54 -70 -95
-70 -24 0 -43 4 -43 9 0 4 22 37 48 72 27 35 54 74 61 87 14 26 28 28 59 6z
m82 -89 l23 -25 -30 -38 c-30 -37 -84 -55 -104 -35 -9 9 65 123 80 123 4 0 18
-11 31 -25z m79 -86 c32 -26 16 -43 -33 -34 -40 8 -40 8 -26 36 13 24 29 24
59 -2z m-932 -14 c46 -2 85 1 88 5 3 5 20 7 37 5 18 -2 62 -5 98 -6 36 -1 72
-7 80 -15 16 -13 75 -37 150 -59 71 -21 222 -92 232 -109 5 -9 4 -24 -2 -36
-5 -11 -14 -29 -20 -40 -5 -11 -10 -28 -10 -38 0 -20 -37 -42 -70 -42 -29 0
-50 -11 -50 -26 0 -8 -16 -22 -35 -31 -36 -17 -39 -22 -50 -85 -4 -29 -3 -38
8 -38 24 0 29 -43 8 -63 -21 -22 -71 -14 -72 12 0 9 -5 4 -11 -11 -23 -65 -66
-16 -75 87 -3 35 -11 65 -20 72 -8 6 -12 16 -9 21 9 14 -16 21 -36 11 -10 -6
-34 -5 -57 0 -41 9 -84 -4 -106 -33 -5 -7 -19 -15 -30 -18 -11 -4 -45 -16 -75
-28 -30 -12 -75 -25 -100 -29 -58 -9 -83 -23 -116 -66 -14 -19 -32 -35 -39
-35 -6 0 -20 -9 -30 -20 -25 -28 -34 -25 -47 12 -11 30 -12 31 -20 9 -4 -12
-13 -19 -18 -16 -6 4 -18 1 -26 -6 -8 -6 -24 -13 -37 -14 -12 -2 -35 -6 -52
-9 -16 -3 -24 -3 -17 0 17 8 15 24 -3 24 -9 0 -15 -9 -15 -24 0 -13 -9 -35
-21 -50 -20 -26 -16 -31 20 -26 9 1 12 -4 7 -15 -3 -9 -6 -25 -6 -34 0 -25
-57 -25 -63 1 -3 10 -10 18 -16 18 -7 0 -9 -9 -5 -24 5 -20 1 -25 -23 -33 -17
-6 -38 -6 -54 -1 -25 9 -26 10 -14 46 7 20 10 41 7 47 -3 5 -9 -1 -12 -13 -7
-34 -24 -28 -30 10 -9 53 -34 100 -47 87 -19 -19 -33 0 -33 44 0 26 -3 37 -9
29 -4 -7 -20 -19 -34 -27 -24 -12 -27 -11 -41 11 -9 13 -16 31 -15 41 0 15 2
15 11 -4 15 -31 48 -37 48 -10 0 12 4 28 9 35 9 15 -6 89 -22 110 -6 8 -21 12
-34 9 -26 -5 -26 -4 -14 41 5 17 8 32 6 32 -9 0 -33 -58 -45 -107 -6 -29 -16
-53 -20 -53 -9 0 -25 50 -20 65 1 6 6 30 11 55 4 25 11 54 15 65 l7 20 -16
-20 c-12 -15 -16 -16 -17 -5 0 23 16 43 29 36 6 -4 13 5 17 21 16 63 104 162
170 189 49 21 118 34 244 49 107 13 217 13 557 0z m1298 -130 c60 -9 90 -18
106 -31 15 -14 37 -19 189 -49 184 -35 355 -79 378 -97 6 -6 12 -22 12 -35 0
-18 4 -24 15 -20 8 4 17 2 20 -3 4 -6 -6 -15 -21 -20 -22 -9 -29 -8 -36 5 -11
19 -28 20 -28 1 0 -22 -17 -28 -32 -12 -8 7 -24 17 -36 20 -12 4 -23 15 -23
24 -1 14 -2 14 -6 -1 -4 -14 -10 -17 -26 -12 -50 15 -67 17 -67 6 0 -18 -20
-12 -21 7 -1 16 -2 16 -6 0 -2 -10 -11 -18 -19 -18 -8 0 -14 -7 -14 -15 0 -13
-4 -12 -22 5 -24 22 -34 25 -43 10 -3 -5 -19 -10 -36 -10 -19 0 -29 -5 -29
-15 0 -8 -4 -15 -10 -15 -5 0 -10 12 -10 26 0 16 -5 24 -12 21 -9 -3 -12 -20
-10 -52 l3 -48 -47 7 c-26 3 -112 6 -191 6 -130 0 -144 2 -139 16 4 9 2 22 -4
29 -6 8 -6 22 2 43 13 34 30 41 113 43 56 2 125 18 125 30 0 4 -4 11 -10 14
-5 3 -10 15 -10 26 0 10 -5 19 -11 19 -6 0 -25 12 -41 26 -24 19 -34 22 -42
13 -8 -8 -8 -13 2 -16 6 -3 12 -11 12 -19 0 -9 -5 -12 -10 -9 -6 4 -17 2 -24
-4 -14 -12 -43 -11 -63 2 -7 4 -21 4 -30 0 -10 -5 -27 -8 -38 -7 -11 0 -32 2
-47 3 -18 0 -28 7 -28 16 0 8 -7 15 -15 15 -8 0 -15 7 -15 15 0 8 -4 15 -10
15 -5 0 -13 1 -16 3 -9 3 -35 -76 -29 -90 5 -14 -16 -16 -52 -7 -13 4 -23 13
-23 20 0 8 -5 14 -11 14 -6 0 -8 9 -4 20 5 15 3 18 -9 14 -20 -8 -21 19 -2 36
9 6 76 16 158 21 78 6 149 15 158 20 13 9 35 8 135 -6z m782 -215 c13 0 23 -5
23 -11 0 -6 -14 -9 -32 -7 -24 2 -34 9 -36 23 -3 16 -1 18 9 8 7 -7 23 -13 36
-13z m-1817 -64 c0 -3 -4 -8 -10 -11 -5 -3 -10 -1 -10 4 0 6 5 11 10 11 6 0
10 -2 10 -4z m-1170 -20 c0 -3 -4 -8 -10 -11 -5 -3 -10 -1 -10 4 0 6 5 11 10
11 6 0 10 -2 10 -4z m2500 -92 c0 -33 33 -73 45 -55 4 8 12 8 27 0 11 -6 30
-8 43 -5 14 4 67 -8 132 -29 128 -42 193 -90 193 -143 0 -38 9 -45 42 -28 19
10 29 11 37 3 8 -8 11 -3 11 17 0 23 3 26 13 17 8 -6 17 -8 20 -4 4 3 7 0 7
-8 0 -8 14 -22 31 -32 17 -9 29 -23 26 -30 -2 -6 0 -21 6 -32 10 -19 10 -19
18 4 l9 22 43 -35 c54 -44 84 -78 125 -142 26 -41 32 -61 32 -104 0 -114 -62
-345 -126 -472 -13 -26 -24 -57 -24 -68 0 -51 -134 -203 -220 -251 -105 -58
-186 -79 -311 -80 -67 -1 -83 3 -125 28 -117 68 -133 84 -193 198 -35 67 -61
95 -87 95 -16 0 -24 10 -33 43 -16 51 -28 67 -52 67 -13 0 -26 15 -40 49 -13
28 -33 55 -50 65 -15 9 -33 31 -39 50 -6 18 -20 42 -31 52 -12 11 -27 31 -35
46 -8 15 -29 35 -47 44 -17 9 -39 25 -47 34 -8 9 -32 23 -52 30 -37 14 -76 54
-112 116 -10 16 -31 39 -47 50 -26 17 -29 25 -29 71 0 72 6 84 35 73 14 -5 27
-6 29 -1 3 5 16 6 30 4 13 -3 27 0 30 6 4 6 15 11 25 11 9 0 27 11 39 25 13
14 33 25 47 25 14 0 25 5 25 11 0 6 -15 9 -34 8 -19 -2 -37 -1 -40 1 -10 11
-13 78 -6 125 6 41 9 46 15 28 9 -28 26 -29 43 -3 10 17 16 19 33 9 12 -6 39
-8 63 -5 105 15 147 18 163 11 27 -10 203 -15 243 -6 33 7 35 9 32 45 -3 34
-1 37 20 34 19 -2 23 2 25 27 2 49 3 51 13 35 5 -8 10 -29 10 -46z m-2570 11
c0 -8 -4 -17 -10 -20 -6 -4 -10 5 -10 20 0 15 4 24 10 20 6 -3 10 -12 10 -20z
m1640 5 c-6 -11 -14 -19 -18 -18 -17 5 -102 -14 -102 -22 0 -5 7 -7 15 -4 15
6 22 -16 9 -29 -15 -14 -44 15 -44 43 0 38 21 49 93 50 55 0 57 -1 47 -20z
m-607 -26 c12 -12 -15 -64 -34 -64 -10 0 -19 5 -19 11 0 7 -10 9 -25 7 -14 -3
-25 -2 -25 3 0 10 15 19 42 24 13 3 24 9 26 15 4 11 25 14 35 4z m-1033 -28
c0 -3 -4 -8 -10 -11 -5 -3 -10 -1 -10 4 0 6 5 11 10 11 6 0 10 -2 10 -4z m17
-53 c-3 -10 -5 -2 -5 17 0 19 2 27 5 18 2 -10 2 -26 0 -35z m1599 -40 c-10
-10 -19 5 -10 18 6 11 8 11 12 0 2 -7 1 -15 -2 -18z m-1606 -23 c0 -31 -3 -38
-15 -34 -8 4 -15 18 -15 34 0 24 6 32 28 39 1 1 2 -17 2 -39z m708 11 c5 -29
-13 -50 -29 -34 -8 8 -8 13 0 17 20 13 11 23 -14 18 -25 -4 -35 12 -12 22 27
11 52 1 55 -23z m648 -8 c-10 -10 -19 5 -10 18 6 11 8 11 12 0 2 -7 1 -15 -2
-18z m119 -5 c2 -18 6 -53 7 -78 2 -27 8 -45 16 -46 6 -1 15 -3 20 -4 4 -1 10
-2 15 -1 6 1 12 -128 7 -174 -3 -30 -16 -41 -67 -55 -42 -12 -47 -12 -60 6
-14 18 -14 18 -11 -5 4 -33 -20 -39 -28 -6 -4 18 -1 31 12 43 11 9 25 28 32
41 12 20 12 25 1 32 -11 6 -11 11 -2 20 6 6 9 18 6 26 -5 13 -3 13 16 1 18
-11 23 -11 30 1 5 8 16 11 29 7 13 -5 22 -1 26 10 4 9 4 19 1 22 -3 3 -5 0 -5
-6 0 -7 -4 -12 -10 -12 -5 0 -10 7 -10 16 0 11 -5 14 -17 9 -10 -4 -27 -9 -38
-11 -17 -4 -17 -3 3 7 22 12 29 33 13 43 -14 9 -21 65 -15 107 8 47 21 51 29
7z m306 -19 c-9 -23 -10 -23 -10 -2 -1 12 2 30 6 40 6 15 8 15 11 2 1 -8 -2
-26 -7 -40z m-1246 11 c-3 -5 -11 -10 -16 -10 -6 0 -7 5 -4 10 3 6 11 10 16
10 6 0 7 -4 4 -10z m109 -15 c-4 -8 -10 -15 -15 -15 -12 0 -11 -34 1 -46 13
-13 2 -46 -11 -38 -5 3 -8 13 -7 22 2 11 -3 16 -14 14 -25 -4 -23 4 14 43 35
39 40 42 32 20z m1001 -29 c-16 -77 -29 -88 -39 -31 -8 39 10 76 31 68 10 -4
12 -15 8 -37z m-1465 -18 c0 -16 -3 -18 -13 -9 -9 7 -17 7 -24 0 -14 -14 -33
12 -27 38 5 19 8 20 35 6 18 -9 29 -22 29 -35z m529 0 c-9 -16 -14 -19 -17 -9
-2 7 2 17 9 22 20 13 21 11 8 -13z m671 6 c0 -8 -4 -12 -10 -9 -5 3 -10 10
-10 16 0 5 5 9 10 9 6 0 10 -7 10 -16z m316 -20 c-4 -14 -9 -24 -12 -21 -3 2
-2 17 2 31 3 15 9 25 11 22 3 -3 2 -17 -1 -32z m1488 -5 c-3 -5 -10 -7 -15 -3
-5 3 -7 10 -3 15 3 5 10 7 15 3 5 -3 7 -10 3 -15z m-1437 -21 c-3 -7 -5 -2 -5
12 0 14 2 19 5 13 2 -7 2 -19 0 -25z m-1750 -20 c-3 -7 -5 -2 -5 12 0 14 2 19
5 13 2 -7 2 -19 0 -25z m500 1 c-10 -6 -17 -22 -18 -42 0 -31 -1 -31 -10 -8
-8 19 -5 29 12 48 13 12 25 20 28 17 3 -3 -2 -10 -12 -15z m32 -59 c0 -23 -1
-23 -9 -5 -5 11 -9 29 -9 40 -1 17 1 17 9 5 5 -8 9 -26 9 -40z m-379 30 c0 -5
-4 -10 -10 -10 -5 0 -10 5 -10 10 0 6 5 10 10 10 6 0 10 -4 10 -10z m34 -4
c-10 -8 -21 -12 -24 -10 -5 6 21 24 34 24 6 0 1 -6 -10 -14z m136 5 c0 -5 -8
-11 -17 -15 -10 -3 -26 -11 -35 -18 -25 -18 -34 -2 -13 22 18 20 65 28 65 11z
m55 0 c3 -5 1 -12 -5 -16 -5 -3 -10 1 -10 9 0 18 6 21 15 7z m60 -20 c-3 -6
-11 -11 -17 -11 -6 0 -6 6 2 15 14 17 26 13 15 -4z m-443 -17 c-3 -19 -7 -22
-13 -12 -13 20 -11 38 5 38 9 0 12 -8 8 -26z m218 16 c0 -5 -5 -10 -11 -10 -5
0 -7 5 -4 10 3 6 8 10 11 10 2 0 4 -4 4 -10z m1245 -10 c3 -5 1 -10 -4 -10 -6
0 -11 5 -11 10 0 6 2 10 4 10 3 0 8 -4 11 -10z m-958 -76 c-2 -13 0 -24 4 -24
5 0 9 -9 9 -21 0 -28 24 -19 28 12 5 30 20 49 40 49 8 0 21 8 28 18 12 16 13
15 14 -5 0 -12 -5 -25 -11 -28 -6 -4 -8 -13 -5 -20 6 -17 -16 -80 -37 -103 -9
-10 -17 -26 -17 -36 0 -31 -26 -48 -65 -40 l-35 6 0 -50 c0 -57 28 -102 63
-102 15 0 26 -10 35 -29 7 -16 21 -39 32 -52 11 -13 23 -29 27 -34 45 -59 96
-118 134 -157 l47 -47 -23 -15 c-14 -9 -35 -16 -48 -16 -14 0 -30 -7 -37 -15
-15 -18 -165 -22 -175 -4 -4 6 -12 8 -19 6 -8 -3 -11 24 -10 95 1 76 -2 101
-13 105 -8 3 -10 10 -5 17 5 6 10 18 11 26 7 81 6 118 -1 114 -10 -6 -78 64
-78 80 0 5 10 18 23 30 30 28 38 60 21 84 -10 14 -12 38 -7 86 6 64 18 87 25
46 6 -42 23 -23 26 30 3 44 5 51 14 37 5 -11 8 -30 5 -43z m-57 26 c0 -11 -4
-20 -9 -20 -14 0 -23 18 -16 30 10 17 25 11 25 -10z m-284 -24 c7 -17 -22 -53
-58 -72 -23 -12 -27 -12 -32 1 -8 21 9 61 31 74 26 15 53 13 59 -3z m-179
-128 c-3 -8 -6 -5 -6 6 -1 11 2 17 5 13 3 -3 4 -12 1 -19z m1067 -64 c3 -9 6
-24 6 -35 0 -10 6 -19 14 -19 16 0 16 -52 0 -57 -9 -3 -44 93 -44 120 0 13 18
7 24 -9z m-324 -43 c0 -17 10 -46 21 -66 12 -20 22 -56 23 -80 1 -25 5 -47 9
-51 3 -3 0 -15 -6 -25 -10 -16 -9 -21 1 -28 8 -4 13 -11 13 -15 -4 -27 1 -37
14 -33 8 4 17 2 20 -3 4 -6 1 -10 -4 -10 -6 0 -11 -7 -11 -15 0 -18 17 -20 22
-4 3 9 10 9 26 0 13 -7 20 -16 17 -20 -3 -5 2 -11 10 -15 24 -9 18 -21 -20
-39 -37 -18 -50 -6 -14 13 30 16 17 23 -15 9 -22 -11 -29 -10 -43 4 -22 22
-11 32 16 15 18 -11 23 -10 38 5 16 15 16 17 1 17 -9 0 -20 -5 -23 -10 -5 -8
-11 -7 -20 0 -8 7 -19 9 -25 5 -6 -3 -31 15 -56 42 -45 47 -164 197 -164 207
0 2 13 7 30 11 16 4 37 16 45 28 31 45 70 87 83 87 7 0 12 -12 12 -29z m-773
-103 c-3 -8 -6 -5 -6 6 -1 11 2 17 5 13 3 -3 4 -12 1 -19z m1163 2 c0 -5 -5
-10 -11 -10 -5 0 -7 5 -4 10 3 6 8 10 11 10 2 0 4 -4 4 -10z m-1050 -41 c0 -6
-4 -7 -10 -4 -5 3 -10 11 -10 16 0 6 5 7 10 4 6 -3 10 -11 10 -16z m1054 13
c3 -5 -8 -24 -25 -43 -17 -19 -28 -29 -26 -24 27 70 39 86 51 67z m-724 -18
c0 -9 5 -12 12 -8 7 4 8 3 4 -5 -6 -9 -11 -9 -22 0 -16 13 -18 29 -4 29 6 0
10 -7 10 -16z m-310 -24 c0 -5 -4 -10 -10 -10 -5 0 -10 5 -10 10 0 6 5 10 10
10 6 0 10 -4 10 -10z m60 -110 c0 -5 -2 -10 -4 -10 -3 0 -8 5 -11 10 -3 6 -1
10 4 10 6 0 11 -4 11 -10z m-155 -150 c3 -5 1 -10 -4 -10 -6 0 -11 5 -11 10 0
6 2 10 4 10 3 0 8 -4 11 -10z m79 -65 c-7 -35 -24 -57 -24 -32 0 9 -4 17 -9
17 -8 0 -31 52 -31 70 0 4 16 0 35 -8 32 -15 35 -19 29 -47z m-1292 -337 c-7
-7 -12 -8 -12 -2 0 6 3 14 7 17 3 4 9 5 12 2 2 -3 -1 -11 -7 -17z m440 -308
c3 -17 1 -33 -3 -36 -12 -7 -30 32 -23 50 10 25 21 19 26 -14z m-67 -26 c0
-12 -8 -20 -22 -22 -26 -4 -28 0 -11 28 15 24 33 21 33 -6z m-428 -46 c-2 -13
-4 -3 -4 22 0 25 2 35 4 23 2 -13 2 -33 0 -45z m550 -2 c-6 -17 -47 -20 -47
-3 0 9 6 17 13 20 18 6 38 -4 34 -17z m-47 -105 c0 -42 -9 -50 -41 -37 -36 15
-38 24 -7 41 34 19 48 18 48 -4z m796 -59 c-12 -12 -18 8 -10 35 l8 28 4 -28
c2 -16 1 -31 -2 -35z m-760 -46 c56 -2 109 -8 120 -14 21 -11 25 -9 -61 -27
-16 -3 -47 -6 -67 -5 -20 0 -39 -4 -43 -10 -5 -8 -12 -7 -23 2 -13 11 -15 10
-10 -9 4 -13 2 -26 -3 -29 -5 -3 -9 -16 -9 -28 0 -25 -26 -54 -37 -42 -4 4 -1
11 6 16 11 6 13 25 8 84 -5 58 -4 74 6 71 6 -3 57 -6 113 -9z m-222 -15 c3 -5
15 -7 25 -4 30 8 16 -30 -21 -57 -29 -21 -32 -22 -44 -6 -8 11 -14 13 -19 7
-3 -6 -15 -11 -27 -11 -15 0 -19 -5 -15 -20 3 -10 -1 -24 -9 -31 -8 -6 -14
-18 -14 -25 0 -8 -6 -14 -14 -14 -17 0 -28 52 -13 63 9 5 6 11 -7 18 -26 16
-3 29 51 29 23 0 45 4 48 10 3 5 19 7 35 3 34 -6 42 12 10 22 -11 3 -20 11
-20 16 0 12 27 12 34 0z m511 -31 c-3 -5 -13 -10 -21 -10 -8 0 -12 5 -9 10 3
6 13 10 21 10 8 0 12 -4 9 -10z m115 -50 c14 -11 40 -20 58 -20 17 0 32 -4 32
-9 0 -8 -138 -4 -148 4 -5 4 21 45 28 45 3 0 16 -9 30 -20z m140 -30 c0 -5
-10 -10 -22 -9 -22 0 -22 1 -3 9 11 5 21 9 23 9 1 1 2 -3 2 -9z m114 4 c9 -3
16 -10 16 -15 0 -10 -31 -12 -55 -3 -13 5 -14 8 -3 15 16 10 22 11 42 3z m66
-13 c0 -13 -28 -22 -35 -11 -3 4 1 11 7 13 20 8 28 8 28 -2z m109 -25 c6 -7 9
-21 5 -30 -5 -12 -2 -15 10 -10 19 7 21 -7 4 -24 -17 -17 -41 -15 -34 3 5 15
-4 19 -36 16 -20 -2 -23 11 -8 40 12 22 43 25 59 5z m-1229 -6 c11 -7 12 -12
3 -21 -13 -13 -33 -4 -33 17 0 16 9 18 30 4z m220 -26 c0 -8 -7 -14 -15 -14
-15 0 -21 21 -9 33 10 9 24 -2 24 -19z m585 6 c-3 -5 -12 -7 -20 -3 -21 7 -19
13 6 13 11 0 18 -4 14 -10z m30 0 c3 -5 1 -10 -4 -10 -6 0 -11 5 -11 10 0 6 2
10 4 10 3 0 8 -4 11 -10z m42 -6 c-3 -3 -12 -4 -19 -1 -8 3 -5 6 6 6 11 1 17
-2 13 -5z m-50 -28 c-3 -7 -1 -18 5 -24 6 -6 7 -15 4 -21 -8 -12 -76 -15 -76
-3 1 12 34 49 50 55 22 8 23 8 17 -7z m3983 -24 c-8 -4 -15 -20 -15 -37 0 -27
-4 -30 -37 -36 l-38 -6 0 38 c0 20 6 40 13 42 19 8 94 7 77 -1z m-4068 -30 c4
-15 1 -18 -18 -14 -24 4 -30 -9 -25 -60 3 -26 -15 -22 -24 5 -6 18 -8 19 -12
5 -2 -9 -18 -23 -34 -30 -21 -9 -29 -18 -25 -31 4 -17 -17 -47 -34 -47 -16 0
-20 18 -5 24 8 3 15 17 15 31 0 17 6 25 18 25 9 1 42 25 72 55 30 30 58 55 61
55 4 0 9 -8 11 -18z m65 -18 c-3 -3 -12 -4 -19 -1 -8 3 -5 6 6 6 11 1 17 -2
13 -5z m293 -13 c0 -4 -9 -7 -20 -8 -11 -1 -20 4 -20 12 0 8 7 11 20 8 11 -3
20 -8 20 -12z m70 5 c0 -7 -9 -16 -20 -19 -22 -6 -23 -5 -14 17 8 20 34 21 34
2z m-150 -6 c0 -5 -10 -10 -22 -10 -19 0 -20 2 -8 10 19 13 30 13 30 0z m-473
-45 c-24 -24 -29 -18 -10 11 9 15 19 22 21 15 2 -6 -3 -18 -11 -26z m223 26
c0 -5 -9 -11 -20 -14 -13 -3 -20 0 -20 9 0 8 9 14 20 14 11 0 20 -4 20 -9z
m3920 -8 c0 -31 -17 -48 -33 -35 -11 9 -14 8 -15 -6 0 -9 4 -29 10 -44 7 -18
6 -33 -2 -48 -9 -17 -9 -25 3 -38 31 -36 26 -122 -7 -122 -7 0 -20 -7 -27 -16
-11 -14 -15 -12 -26 20 -6 20 -15 64 -18 99 -3 34 -8 81 -11 103 -5 39 -3 43
29 63 19 12 42 18 51 15 11 -4 16 -1 16 10 0 9 7 16 15 16 8 0 15 -8 15 -17z
m-3573 1 c-3 -3 -12 -4 -19 -1 -8 3 -5 6 6 6 11 1 17 -2 13 -5z m-860 -36 c-3
-7 -5 -2 -5 12 0 14 2 19 5 13 2 -7 2 -19 0 -25z m250 -20 c3 6 10 12 18 12
20 0 15 -49 -6 -61 -11 -5 -19 -16 -19 -24 0 -8 -4 -15 -10 -15 -12 0 -13 12
-1 43 7 18 6 30 -4 44 -8 11 -11 23 -8 27 4 4 11 -3 16 -16 6 -14 11 -18 14
-10z m278 13 c-25 -24 -130 -41 -123 -20 4 10 19 13 47 11 22 -1 41 2 41 7 0
9 18 17 45 20 5 0 1 -8 -10 -18z m750 9 c-3 -5 -16 -10 -28 -9 -20 1 -20 2 3
9 14 4 26 8 28 9 2 1 0 -3 -3 -9z m52 4 c-3 -3 -12 -4 -19 -1 -8 3 -5 6 6 6
11 1 17 -2 13 -5z m2703 -8 c0 -8 -5 -18 -11 -22 -14 -8 -33 11 -25 25 10 16
36 13 36 -3z m-2817 -23 c-7 -2 -19 -2 -25 0 -7 3 -2 5 12 5 14 0 19 -2 13 -5z
m-1288 -13 c3 -5 17 -10 29 -10 13 0 29 -7 36 -15 11 -13 8 -15 -13 -15 -38 0
-57 -10 -57 -30 0 -18 -23 -34 -34 -23 -3 4 -6 15 -6 27 0 20 0 20 -14 0 -8
-10 -17 -16 -20 -13 -11 10 5 38 24 44 10 3 20 15 23 25 5 21 22 26 32 10z
m295 -9 c0 -15 -38 -56 -45 -49 -9 9 21 58 35 58 6 0 10 -4 10 -9z m877 -7
c-3 -3 -12 -4 -19 -1 -8 3 -5 6 6 6 11 1 17 -2 13 -5z m-102 -24 c-11 -4 -40
-14 -65 -21 -25 -7 -49 -16 -55 -19 -19 -13 -45 -19 -45 -11 0 4 19 14 43 21
23 8 47 17 52 21 10 7 48 16 75 17 9 0 6 -3 -5 -8z m3435 -6 c0 -8 -5 -12 -10
-9 -6 4 -8 11 -5 16 9 14 15 11 15 -7z m-4650 -39 c0 -8 -4 -15 -10 -15 -5 0
-10 7 -10 15 0 8 5 15 10 15 6 0 10 -7 10 -15z m400 -9 c0 -8 -6 -16 -14 -19
-10 -4 -12 0 -9 14 6 22 23 26 23 5z m1380 4 c0 -5 -5 -10 -11 -10 -5 0 -7 5
-4 10 3 6 8 10 11 10 2 0 4 -4 4 -10z m-758 -22 c-7 -7 -12 -8 -12 -2 0 14 12
26 19 19 2 -3 -1 -11 -7 -17z m843 4 c-3 -3 -11 0 -18 7 -9 10 -8 11 6 5 10
-3 15 -9 12 -12z m-325 -2 c0 -5 -5 -10 -11 -10 -5 0 -7 5 -4 10 3 6 8 10 11
10 2 0 4 -4 4 -10z m-280 -40 c0 -5 -7 -10 -15 -10 -8 0 -15 5 -15 10 0 6 7
10 15 10 8 0 15 -4 15 -10z m510 -65 l-7 -70 -2 66 c0 36 2 69 6 72 11 11 11
5 3 -68z m40 -22 c-4 -42 -5 -44 -8 -15 -3 30 2 62 10 62 2 0 1 -21 -2 -47z
m-650 33 c0 -11 -19 -15 -25 -6 -3 5 1 10 9 10 9 0 16 -2 16 -4z m1078 -53
c-10 -2 -18 -9 -18 -14 0 -5 -19 -8 -42 -8 -30 2 -35 3 -15 6 15 2 27 9 27 14
0 5 15 8 33 8 17 -1 24 -3 15 -6z m-128 -13 c0 -5 -4 -10 -10 -10 -5 0 -10 5
-10 10 0 6 5 10 10 10 6 0 10 -4 10 -10z m-607 -72 c3 -35 8 -71 12 -80 5 -14
2 -18 -13 -18 -11 0 -32 -7 -48 -15 -32 -16 -44 -7 -36 31 3 15 -2 32 -13 44
-18 20 -17 20 23 20 l42 0 0 40 c0 27 4 40 14 40 9 0 15 -19 19 -62z m3090 42
c-3 -11 -9 -20 -14 -20 -5 0 -9 9 -9 20 0 11 6 20 14 20 9 0 12 -7 9 -20z
m-4448 -10 c-3 -4 -15 -6 -27 -2 -21 5 -21 6 -2 12 21 8 37 3 29 -10z m3955 6
c0 -3 -4 -8 -10 -11 -5 -3 -10 -1 -10 4 0 6 5 11 10 11 6 0 10 -2 10 -4z
m-3340 -69 c-16 -30 -30 -61 -30 -71 0 -9 -4 -14 -10 -11 -12 8 16 82 43 113
31 33 30 27 -3 -31z m-665 8 c0 -22 -14 -28 -34 -16 -12 8 -12 11 0 25 18 19
34 15 34 -9z m58 -11 c-4 -10 -9 -11 -24 -1 -18 11 -18 13 -2 24 19 15 35 0
26 -23z m1594 -46 c-2 -13 -4 -3 -4 22 0 25 2 35 4 23 2 -13 2 -33 0 -45z
m2698 35 c4 -16 8 -36 10 -45 2 -10 -1 -20 -5 -23 -8 -5 -30 55 -30 83 0 23
20 12 25 -15z m-4476 -10 c-8 -9 -16 -10 -22 -4 -13 13 0 31 19 24 11 -4 12
-8 3 -20z m4696 7 c7 -22 -4 -52 -16 -44 -5 3 -9 -11 -9 -30 0 -38 -17 -58
-26 -29 -3 10 -10 26 -15 35 -21 40 -2 86 35 86 15 0 28 -7 31 -18z m-4385
-28 c0 -10 -6 -26 -13 -37 -13 -17 -14 -17 -20 4 -3 11 -1 21 4 21 5 0 9 7 9
15 0 8 5 15 10 15 6 0 10 -8 10 -18z m510 -11 c-5 -11 -15 -32 -20 -47 -16
-41 -23 -21 -9 25 7 23 18 41 26 41 10 0 11 -5 3 -19z m2331 4 c25 -10 29 -14
13 -15 -11 0 -29 7 -40 15 -25 19 -15 19 27 0z m813 0 c-4 -8 -8 -15 -10 -15
-2 0 -4 7 -4 15 0 8 4 15 10 15 5 0 7 -7 4 -15z m-1006 -14 c8 -4 12 -19 10
-32 -3 -23 -4 -23 -20 9 -17 32 -14 39 10 23z m-3053 -10 c3 -5 1 -12 -5 -16
-5 -3 -10 1 -10 9 0 18 6 21 15 7z m985 -33 c-1 -41 -1 -42 -14 -19 -14 25
-11 61 5 61 5 0 9 -19 9 -42z m2320 32 c0 -5 -2 -10 -4 -10 -3 0 -8 5 -11 10
-3 6 -1 10 4 10 6 0 11 -4 11 -10z m117 -40 c152 -59 277 -81 457 -81 97 0
139 -4 153 -14 17 -13 17 -14 -1 -21 -30 -12 -275 3 -293 18 -12 10 -17 10
-20 1 -3 -9 -16 -8 -51 3 -26 7 -62 14 -79 14 -18 0 -33 5 -33 11 0 5 -4 7
-10 4 -5 -3 -52 12 -103 34 -50 23 -97 41 -104 41 -6 0 -15 5 -18 10 -11 17
21 11 102 -20z m-2596 -80 c-7 -79 -8 -85 -9 -35 -2 56 7 139 14 133 1 -2 -1
-46 -5 -98z m1706 58 c-3 -7 -5 -2 -5 12 0 14 2 19 5 13 2 -7 2 -19 0 -25z
m613 7 c0 -9 -9 -15 -25 -15 -22 0 -24 2 -13 15 17 19 38 19 38 0z m58 -11
c15 -5 22 -14 22 -32 0 -25 1 -25 15 -6 15 19 15 19 33 -3 10 -11 30 -23 43
-25 13 -2 23 -9 22 -16 -2 -7 8 -12 22 -12 16 0 25 -6 25 -15 0 -8 5 -15 10
-15 11 0 13 -75 3 -133 -5 -35 -8 -38 -37 -35 -21 2 -35 11 -43 28 l-13 25 0
-32 c0 -18 -5 -33 -11 -33 -5 0 -8 4 -5 9 8 12 -39 23 -69 15 -14 -3 -32 -1
-40 6 -8 6 -19 9 -25 5 -5 -3 -10 1 -10 9 0 9 7 16 16 16 25 0 10 25 -17 28
-13 2 -28 8 -33 13 -13 12 -29 12 -21 -1 3 -6 -1 -7 -9 -4 -9 3 -16 15 -16 25
0 10 -7 19 -15 19 -10 0 -15 10 -15 32 0 25 -3 29 -12 20 -18 -18 -38 -14 -38
8 0 16 7 20 34 20 28 0 35 4 40 25 5 21 12 25 45 25 30 0 40 4 44 20 5 21 17
24 55 14z m830 -8 c-7 -8 -15 -12 -17 -11 -5 6 10 25 20 25 5 0 4 -6 -3 -14z
m-3131 -18 c-3 -8 -6 -5 -6 6 -1 11 2 17 5 13 3 -3 4 -12 1 -19z m959 -96
c-12 -11 -13 4 -7 63 l6 60 3 -59 c2 -32 1 -61 -2 -64z m661 21 c-2 -16 -4 -3
-4 27 0 30 2 43 4 28 2 -16 2 -40 0 -55z m1123 -48 c0 -8 5 -15 10 -15 6 0 10
7 10 15 0 21 17 19 30 -4 14 -27 1 -32 -51 -22 -24 5 -38 9 -31 10 6 1 12 8
12 16 0 8 5 15 10 15 6 0 10 -7 10 -15z m135 5 c6 -9 112 -6 167 6 15 3 40 -1
57 -11 36 -18 36 -19 17 -38 -11 -10 -31 -13 -73 -10 -32 2 -94 6 -137 8 -77
4 -95 12 -96 43 0 14 56 17 65 2z m-1925 -35 c0 -8 -4 -15 -10 -15 -5 0 -10 7
-10 15 0 8 5 15 10 15 6 0 10 -7 10 -15z m657 -32 c-3 -10 -5 -2 -5 17 0 19 2
27 5 18 2 -10 2 -26 0 -35z m-2164 1 c9 -9 -4 -35 -14 -28 -5 3 -9 12 -9 20 0
14 12 19 23 8z m1507 -20 c0 -8 -4 -14 -10 -14 -5 0 -10 9 -10 21 0 11 5 17
10 14 6 -3 10 -13 10 -21z m613 -34 c-3 -11 -7 -20 -9 -20 -2 0 -4 9 -4 20 0
11 4 20 9 20 5 0 7 -9 4 -20z m1224 -14 c3 -2 0 -14 -7 -25 -12 -24 -42 -27
-100 -9 -56 18 -55 46 3 50 39 3 94 -5 104 -16z m-1190 -18 c-3 -7 -5 -2 -5
12 0 14 2 19 5 13 2 -7 2 -19 0 -25z m1389 12 c35 0 64 -4 64 -9 0 -14 -61
-31 -95 -27 -20 3 -39 -4 -59 -19 -25 -19 -33 -21 -60 -11 -41 14 -43 16 -26
26 12 7 12 12 2 22 -24 24 -12 31 49 24 34 -3 91 -6 125 -6z m-2046 -32 c0 -5
-4 -8 -10 -8 -5 0 -10 10 -10 23 0 18 2 19 10 7 5 -8 10 -18 10 -22z m2140
-18 c0 -5 -4 -10 -10 -10 -5 0 -10 5 -10 10 0 6 5 10 10 10 6 0 10 -4 10 -10z
m-3540 -30 c0 -5 -4 -10 -10 -10 -5 0 -10 5 -10 10 0 6 5 10 10 10 6 0 10 -4
10 -10z m3500 -10 c-36 -12 -108 -12 -115 0 -4 6 20 10 67 9 52 -1 66 -3 48
-9z m-2800 -70 l0 -40 -40 0 -40 0 0 40 0 40 40 0 40 0 0 -40z m1357 -22 c-2
-13 -4 -3 -4 22 0 25 2 35 4 23 2 -13 2 -33 0 -45z m1750 -14 c-3 -3 -12 -4
-19 -1 -8 3 -5 6 6 6 11 1 17 -2 13 -5z m-3675 -24 c-41 -25 -51 -25 -26 -1
10 11 28 20 39 20 15 1 12 -4 -13 -19z"/>
<path d="M4375 5216 l-20 -16 20 -16 c18 -14 20 -14 23 0 2 9 2 23 0 32 -3 14
-5 14 -23 0z"/>
<path d="M4393 5020 c0 -36 2 -50 4 -32 2 17 2 47 0 65 -2 17 -4 3 -4 -33z"/>
<path d="M4753 4975 c0 -38 2 -53 4 -32 2 20 2 52 0 70 -2 17 -4 1 -4 -38z"/>
<path d="M4481 5004 c0 -11 3 -14 6 -6 3 7 2 16 -1 19 -3 4 -6 -2 -5 -13z"/>
<path d="M4662 4980 c0 -14 2 -19 5 -12 2 6 2 18 0 25 -3 6 -5 1 -5 -13z"/>
<path d="M4482 4960 c0 -14 2 -19 5 -12 2 6 2 18 0 25 -3 6 -5 1 -5 -13z"/>
<path d="M4587 5223 c-4 -3 -7 -11 -7 -17 0 -6 5 -5 12 2 6 6 9 14 7 17 -3 3
-9 2 -12 -2z"/>
<path d="M3195 4060 c-3 -5 4 -14 15 -20 16 -8 20 -8 20 4 0 16 -27 29 -35 16z"/>
<path d="M4040 3520 c0 -19 3 -21 12 -12 9 9 9 15 0 24 -9 9 -12 7 -12 -12z"/>
<path d="M2912 3338 c-14 -14 -16 -28 -3 -28 5 0 11 9 14 20 6 23 5 24 -11 8z"/>
<path d="M3365 2480 c-4 -6 -16 -8 -28 -5 -19 5 -20 5 -4 -5 19 -12 57 -5 57
11 0 12 -17 12 -25 -1z"/>
<path d="M3198 2469 c10 -9 124 -17 115 -8 -4 4 -34 9 -65 11 -31 1 -54 0 -50
-3z"/>
<path d="M150 4189 c-25 -4 -69 -16 -97 -26 l-53 -17 0 -219 c0 -172 3 -217
13 -211 6 5 30 20 52 35 46 31 118 54 199 64 69 9 190 -16 261 -54 106 -56
263 -237 319 -368 20 -46 16 -45 281 -108 87 -21 115 -32 133 -53 20 -23 23
-24 18 -6 -3 11 1 29 9 40 8 10 15 26 15 34 0 22 -128 271 -185 360 -92 144
-233 297 -351 383 -77 56 -199 112 -293 136 -90 22 -233 27 -321 10z m850
-678 c0 -6 -4 -13 -10 -16 -5 -3 -10 1 -10 9 0 9 5 16 10 16 6 0 10 -4 10 -9z"/>
<path d="M245 3548 c-56 -20 -130 -85 -172 -152 -63 -98 -73 -126 -73 -201 0
-66 2 -73 25 -85 14 -7 27 -11 29 -9 1 2 21 38 42 79 49 95 127 176 179 186
145 27 279 -158 341 -473 l17 -83 51 -29 c28 -17 54 -27 58 -23 4 4 -2 55 -12
113 -49 285 -139 491 -269 616 -55 53 -159 82 -216 61z"/>
<path d="M273 3240 c-47 -19 -58 -92 -20 -128 47 -45 137 -11 137 52 0 52 -68
96 -117 76z"/>
<path d="M1280 3181 c0 -11 4 -22 9 -25 4 -3 6 6 3 19 -5 30 -12 33 -12 6z"/>
<path d="M1401 2544 c0 -11 3 -14 6 -6 3 7 2 16 -1 19 -3 4 -6 -2 -5 -13z"/>
<path d="M1400 2473 c0 -41 13 -35 24 10 5 20 3 27 -9 27 -11 0 -15 -11 -15
-37z"/>
<path d="M240 2223 c-51 -8 -133 -35 -186 -60 l-54 -25 0 -808 0 -808 218 5
c119 3 271 8 337 12 l120 6 7 80 c88 944 107 1227 87 1324 -19 98 -85 183
-176 229 -80 41 -250 62 -353 45z m145 -364 c51 -14 83 -44 90 -83 10 -51 -56
-821 -71 -835 -13 -12 -320 -21 -331 -10 -5 5 5 171 24 396 18 214 32 400 33
414 1 91 132 151 255 118z"/>
<path d="M1833 1212 c-9 -5 -10 -17 -4 -37 l8 -30 7 33 c9 37 6 44 -11 34z"/>
<path d="M1864 868 c3 -18 11 -63 16 -101 6 -37 17 -81 24 -99 l13 -31 12 36
c9 28 9 41 1 58 -7 13 -10 38 -6 60 4 24 2 39 -4 39 -5 0 -10 -9 -10 -21 0
-11 -5 -17 -10 -14 -6 3 -7 17 -4 31 9 34 -3 74 -22 74 -13 0 -15 -7 -10 -32z"/>
<path d="M5640 704 c0 -8 5 -12 10 -9 6 3 10 10 10 16 0 5 -4 9 -10 9 -5 0
-10 -7 -10 -16z"/>
<path d="M1627 558 c6 -11 31 -10 37 1 3 5 -5 8 -18 7 -13 0 -22 -4 -19 -8z"/>
<path d="M0 176 l0 -176 242 0 c133 0 239 2 237 4 -2 2 -51 39 -109 81 -58 42
-112 81 -120 88 -19 16 -221 161 -237 171 -10 6 -13 -31 -13 -168z"/>
<path d="M1649 223 c-30 -5 -41 -30 -32 -74 7 -36 40 -39 52 -6 15 39 23 87
14 86 -4 -1 -20 -4 -34 -6z"/>
</g>
</svg>
