<?xml version="1.0" encoding="utf-8" standalone="yes"?> <svg width="1000" height="1000" viewBox="-1 -1 27 27" xmlns="http://www.w3.org/2000/svg" xmlns:xlink="http://www.w3.org/1999/xlink" shape-rendering="crispEdges" id="qr code"><rect id="qr background" fill-opacity="1" fill="rgb(255, 255, 255)" x="-1" y="-1" width="27" height="27"></rect><path fill-opacity="1" fill="rgb(0, 0, 0)" id="qr dark pixels" fill-rule="evenodd" d="M 10 0 L 11 0 L 11 1 L 10 1 z M 14 0 L 16 0 L 16 1 L 17 1 L 17 2 L 16 2 L 16 3 L 15 3 L 15 4 L 17 4 L 17 8 L 19 8 L 19 10 L 18 10 L 18 9 L 17 9 L 17 10 L 16 10 L 16 8 L 14 8 L 14 9 L 15 9 L 15 10 L 14 10 L 14 13 L 13 13 L 13 15 L 14 15 L 14 14 L 15 14 L 15 16 L 14 16 L 14 17 L 15 17 L 15 16 L 16 16 L 16 20 L 14 20 L 14 21 L 16 21 L 16 23 L 18 23 L 18 24 L 20 24 L 20 25 L 15 25 L 15 24 L 14 24 L 14 25 L 13 25 L 13 24 L 11 24 L 11 23 L 12 23 L 12 20 L 13 20 L 13 18 L 12 18 L 12 17 L 11 17 L 11 16 L 12 16 L 12 13 L 11 13 L 11 16 L 9 16 L 9 14 L 10 14 L 10 12 L 9 12 L 9 14 L 7 14 L 7 13 L 8 13 L 8 12 L 7 12 L 7 11 L 8 11 L 8 10 L 7 10 L 7 9 L 4 9 L 4 8 L 8 8 L 8 6 L 9 6 L 9 9 L 10 9 L 10 10 L 9 10 L 9 11 L 10 11 L 10 10 L 11 10 L 11 12 L 13 12 L 13 10 L 12 10 L 12 9 L 11 9 L 11 8 L 12 8 L 12 6 L 11 6 L 11 7 L 10 7 L 10 5 L 12 5 L 12 4 L 13 4 L 13 5 L 14 5 L 14 6 L 13 6 L 13 7 L 14 7 L 14 6 L 15 6 L 15 7 L 16 7 L 16 6 L 15 6 L 15 5 L 14 5 L 14 2 L 13 2 L 13 1 L 14 1 z M 9 1 L 10 1 L 10 2 L 9 2 z M 8 2 L 9 2 L 9 3 L 8 3 z M 11 2 L 12 2 L 12 3 L 11 3 z M 9 3 L 10 3 L 10 5 L 9 5 z M 0 8 L 3 8 L 3 9 L 1 9 L 1 10 L 0 10 z M 22 8 L 23 8 L 23 9 L 22 9 z M 3 9 L 4 9 L 4 11 L 5 11 L 5 12 L 4 12 L 4 13 L 2 13 L 2 12 L 1 12 L 1 10 L 3 10 z M 24 9 L 25 9 L 25 11 L 24 11 L 24 12 L 25 12 L 25 15 L 24 15 L 24 16 L 23 16 L 23 15 L 22 15 L 22 14 L 24 14 L 24 13 L 23 13 L 23 11 L 22 11 L 22 10 L 24 10 z M 5 10 L 7 10 L 7 11 L 5 11 z M 19 10 L 21 10 L 21 11 L 20 11 L 20 12 L 19 12 z M 15 11 L 17 11 L 17 12 L 19 12 L 19 15 L 18 15 L 18 13 L 17 13 L 17 15 L 18 15 L 18 16 L 16 16 L 16 13 L 15 13 z M 0 12 L 1 12 L 1 13 L 0 13 z M 6 12 L 7 12 L 7 13 L 6 13 z M 21 12 L 22 12 L 22 14 L 21 14 z M 1 13 L 2 13 L 2 14 L 1 14 z M 4 13 L 6 13 L 6 14 L 4 14 z M 0 14 L 1 14 L 1 15 L 0 15 z M 2 14 L 3 14 L 3 15 L 2 15 z M 6 14 L 7 14 L 7 15 L 6 15 z M 20 14 L 21 14 L 21 15 L 20 15 z M 1 15 L 2 15 L 2 16 L 1 16 z M 19 15 L 20 15 L 20 16 L 19 16 z M 21 15 L 22 15 L 22 17 L 25 17 L 25 19 L 24 19 L 24 21 L 23 21 L 23 18 L 21 18 z M 0 16 L 1 16 L 1 17 L 0 17 z M 3 16 L 5 16 L 5 17 L 3 17 z M 6 16 L 7 16 L 7 17 L 6 17 z M 8 17 L 10 17 L 10 18 L 9 18 L 9 19 L 10 19 L 10 20 L 11 20 L 11 23 L 9 23 L 9 25 L 8 25 L 8 22 L 9 22 L 9 21 L 8 21 z M 10 18 L 11 18 L 11 19 L 10 19 z M 11 19 L 12 19 L 12 20 L 11 20 z M 21 19 L 22 19 L 22 20 L 21 20 z M 20 21 L 21 21 L 21 22 L 22 22 L 22 24 L 20 24 L 20 23 L 19 23 L 19 22 L 20 22 z M 22 21 L 23 21 L 23 22 L 22 22 z M 24 22 L 25 22 L 25 23 L 24 23 z M 23 23 L 24 23 L 24 24 L 25 24 L 25 25 L 23 25 z"></path><path id="qr squares" d="M0,0h7h0v0v7v0h0h-7h0v0v-7v0h0zM1,1h5h0v0v5v0h0h-5h0v0v-5v0h0zM2,2h3h0v0v3v0h0h-3h0v0v-3v0h0z M18,0h7h0v0v7v0h0h-7h0v0v-7v0h0zM19,1h5h0v0v5v0h0h-5h0v0v-5v0h0zM20,2h3h0v0v3v0h0h-3h0v0v-3v0h0z M0,18h7h0v0v7v0h0h-7h0v0v-7v0h0zM1,19h5h0v0v5v0h0h-5h0v0v-5v0h0zM2,20h3h0v0v3v0h0h-3h0v0v-3v0h0zM16,16h5h0v0v5v0h0h-5h0v0v-5v0h0zM17,17h3h0v0v3v0h0h-3h0v0v-3v0h0zM18,18h1h0v0v1v0h0h-1h0v0v-1v0h0z" fill-rule="evenodd" fill-opacity="1" fill="rgb(0, 0, 0)"></path></svg>